<svg xmlns="http://www.w3.org/2000/svg" viewBox="0 0 299.02 332.87"><defs><style>.cls-1{fill:#1d1d1b;}</style></defs><title>logo</title><g id="Layer_2" data-name="Layer 2"><g id="Layer_1-2" data-name="Layer 1"><path class="cls-1" d="M153.82,1.69c-2.22-2.34-3.21-2.19-5.34.09-17.46,18.75-34.83,37.59-52.69,56-31.27,32.17-62.85,64.05-94.37,96-1.79,1.82-2,2.8-.07,4.7q21.53,21.44,42.78,43.13c2.06,2.11,3.12,1.75,5-.08q22.92-22.15,46-44.13c.41-.39,1.08-.72.44-3.19h-46A3.28,3.28,0,0,0,51.28,153C64.6,139.5,78,126,91.22,112.38c2-2.06,2.91-1.15,4.36.35,11.74,12.12,23.47,24.25,35.36,36.21,2.14,2.16,1.92,3.25-.07,5.27-23.9,24.19-47.66,48.5-71.59,72.65-2.43,2.46-2.34,3.73-.07,6.18C74.9,250,90.42,267.15,106,284.21q21.11,23.1,41.44,46.91c1.68,2,2.64,2.56,4.79.26,30.42-32.63,60.85-65.26,91-98.18,2.2-2.4,2.17-3.57-.07-5.92C221,204,197,182.59,175.77,158.4c-3.53-4-3.9-7.49-2.06-12.05,2.61-6.45,7.23-11.31,12-16.12,6.05-6.14,12.94-11.43,18.52-18,1.66-2,2.5-.5,3.54.48q20.87,19.67,41.72,39.37c.47.45,1.36.78.56,3.11H203a18.77,18.77,0,0,1,2.28,2.17c14.41,14.93,28.89,29.8,43.18,44.84,2.19,2.31,3.27,1.8,5.22-.09q21.78-21.15,43.78-42.09c2.13-2,2.12-3.07.11-5.22C249.71,103.66,202,52.43,153.82,1.69Zm33.43,233.8c1.28,1.26,1.31,2.09-.05,3.3q-16.48,14.7-32.9,29.48a16.27,16.27,0,0,1-1.34,1,3.48,3.48,0,0,1-2.46-1.2c-12.12-9.61-24.22-19.26-36.38-28.82-1.78-1.4-2.05-2.28-.25-4q17.79-16.87,35.4-33.94c1.26-1.22,2.07-1.3,3.35,0Q169.87,218.45,187.25,235.49Zm-13-152.76c-8.35,6.53-16.74,13-25,19.62-1.79,1.44-2.58.94-3.83-.59q-8.4-10.31-17-20.41c-1.21-1.44-1.39-2.26.21-3.58,7-5.68,13.82-11.47,20.67-17.28,1.19-1,2-1.53,3.44-.23,7.1,6.46,14.31,12.82,21.49,19.2.55.49,1.17.91,1.51,1.17A2.58,2.58,0,0,1,174.27,82.73Z"/></g></g></svg>